<?xml version="1.0" encoding="UTF-8"?>
<svg xmlns="http://www.w3.org/2000/svg" xmlns:xlink="http://www.w3.org/1999/xlink" viewBox="0 0 886.39 351.95">
  <defs>
    <style>
      .cls-1 {
        fill: #1d1d1b;
        opacity: .2;
      }

      .cls-2 {
        fill: #7b36ff;
      }

      .cls-3 {
        isolation: isolate;
      }

      .cls-4 {
        fill: #fff;
      }

      .cls-5 {
        fill: url(#Dégradé_sans_nom_28);
        mix-blend-mode: screen;
        opacity: .18;
      }

      .cls-6 {
        fill: url(#Dégradé_sans_nom_27);
      }
    </style>
    <linearGradient id="Dégradé_sans_nom_27" data-name="Dégradé sans nom 27" x1="17.26" y1="284.37" x2="263.19" y2="116.28" gradientUnits="userSpaceOnUse">
      <stop offset=".12" stop-color="#4acaff"/>
      <stop offset=".88" stop-color="#7b36ff"/>
    </linearGradient>
    <linearGradient id="Dégradé_sans_nom_28" data-name="Dégradé sans nom 28" x1="48.01" y1="329.37" x2="293.94" y2="161.28" gradientUnits="userSpaceOnUse">
      <stop offset=".12" stop-color="#7b36ff"/>
      <stop offset=".88" stop-color="#4acaff"/>
    </linearGradient>
  </defs>
  <g class="cls-3">
    <g id="Logo_Couleur" data-name="Logo Couleur">
      <g>
        <g>
          <rect class="cls-6" x="50.28" y="50.29" width="251.28" height="251.28" rx="42.75" ry="42.75"/>
          <path class="cls-5" d="M270.54,51.96c-2.77,6.35-54.08,116.13-95.28,154-33.52,35.48-72.54,61.35-117,77.68,7.75,10.84,20.42,17.93,34.76,17.93h165.78c23.61,0,42.75-19.14,42.75-42.75V93.04c0-19.54-13.12-35.98-31.02-41.08Z"/>
        </g>
        <g>
          <polygon class="cls-2" points="401.87 155.26 403.55 155.26 434.53 105.06 434.53 156.94 453.3 156.94 453.3 51.35 449.8 51.35 402.65 123.1 355.44 51.35 351.94 51.35 351.94 156.94 370.72 156.94 370.72 105 401.31 154.54 401.87 155.26"/>
          <path class="cls-2" d="M525.84,51.78c-29.44,0-53.38,24.03-53.38,53.57s23.92,53.2,53.33,53.2,53.51-23.87,53.51-53.2-23.98-53.57-53.45-53.57ZM560.33,105.23c0,18.95-15.5,34.37-34.55,34.37s-34.43-15.42-34.43-34.37,15.45-34.55,34.43-34.55,34.55,15.5,34.55,34.55Z"/>
          <polygon class="cls-2" points="617.15 93.85 679.21 158.68 682.11 158.68 682.11 53.28 663.28 53.28 663.28 116.49 601.34 51.78 598.38 51.78 598.38 157.06 617.15 157.06 617.15 93.85"/>
          <rect class="cls-2" x="351.94" y="196.04" width="18.77" height="103.41"/>
          <path class="cls-2" d="M424.91,196.04h-30.25v103.41h30.1c32.85,0,53.26-19.77,53.26-51.58,0-15.42-4.83-28.4-13.97-37.52-9.38-9.36-22.91-14.31-39.14-14.31ZM459.06,247.81c0,20.31-13.1,32.93-34.18,32.93h-11.51v-66.05h11.32c21.2,0,34.37,12.69,34.37,33.12Z"/>
          <polygon class="cls-2" points="496.25 299.45 559.06 299.45 559.06 280.74 515.03 280.74 515.03 255.98 559.06 255.98 559.06 237.27 515.03 237.27 515.03 214.56 559.06 214.56 559.06 196.04 496.25 196.04 496.25 299.45"/>
          <polygon class="cls-2" points="598.85 196.04 580.08 196.04 580.08 299.45 650.01 299.45 650.01 280.74 598.85 280.74 598.85 196.04"/>
          <polygon class="cls-2" points="667.23 299.45 730.04 299.45 730.04 280.74 686 280.74 686 255.98 730.04 255.98 730.04 237.27 686 237.27 686 214.56 730.04 214.56 730.04 196.04 667.23 196.04 667.23 299.45"/>
          <path class="cls-2" d="M824.31,270.71c-5.31,5.26-13.94,11.52-24.98,11.52-16.14,0-34.12-14.11-34.12-34.37,0-18.41,15.91-34.55,34.06-34.55,8.83,0,17.7,4,24.97,11.27l1.24,1.24,10.97-14.86-.94-.92c-10.37-10.11-22.79-15.56-35.93-15.75-28.91,0-53.33,24.51-53.33,53.51s24.03,53.26,53.57,53.26c13.43,0,25.1-5.07,35.69-15.51l.91-.9-10.87-15.19-1.26,1.24Z"/>
          <polygon class="cls-2" points="528.24 174.28 517.72 191.66 533.29 191.66 545.94 174.28 528.24 174.28"/>
        </g>
        <g>
          <path class="cls-1" d="M118.07,118.85c-.37-.64-1.04-1.02-1.78-1.02h-10.71l3.66-18.6c.2-1.01-.34-1.97-1.31-2.33-.97-.35-2,.02-2.51.92l-16.84,29.91c-.36.64-.36,1.41.02,2.05.37.64,1.04,1.02,1.78,1.02h10.71l-3.66,18.6c-.2,1.01.34,1.97,1.31,2.33.24.09.49.13.74.13.72,0,1.39-.38,1.77-1.06l16.84-29.91c.36-.64.36-1.41-.02-2.05Z"/>
          <path class="cls-1" d="M202.06,121.22c-10.63,0-20.91,2.69-30.06,7.83-2.52-6.59-8.9-11.27-16.36-11.27-9.65,0-17.51,7.86-17.51,17.55l.7,78.89c0,18.92-12.15,22.9-19.89,22.9-9.18,0-19.48-7.49-19.48-22.9v-36.34c0-3.65,2.97-6.62,6.62-6.62h4.02l.04-7.87c-.31,0-6.33-.03-8.08.25-6.31,1.04-10.68,7.53-10.68,14.24v36.34c0,26.95,19.45,30.97,27.56,30.97,15.68,0,27.97-11.58,27.97-31.01l-.7-78.89c0-5.2,4.23-9.44,9.44-9.44s9.44,4.23,9.44,9.44v8.09l6.35-4.44c9.01-6.3,19.61-9.64,30.64-9.64,28.52,0,49.21,22.52,49.21,53.55s-20.7,53.55-49.21,53.55c-3.95,0-7.87-.45-11.69-1.3-.23-7.46-6.36-13.47-13.88-13.47s-13.9,6.23-13.9,13.9,6.23,13.9,13.9,13.9c4.96,0,9.3-2.62,11.76-6.53,4.51,1.03,9.13,1.59,13.8,1.59,32.66,0,57.29-26.49,57.29-61.63s-24.63-61.63-57.29-61.63ZM176.5,241.34c-3.21,0-5.82-2.61-5.82-5.82s2.61-5.82,5.82-5.82,5.82,2.61,5.82,5.82-2.61,5.82-5.82,5.82Z"/>
          <g>
            <path class="cls-4" d="M122.23,115.44c-.37-.64-1.04-1.02-1.78-1.02h-10.71l3.66-18.6c.2-1.01-.34-1.97-1.31-2.33-.97-.35-2,.02-2.51.92l-16.84,29.91c-.36.64-.36,1.41.02,2.05s1.04,1.02,1.78,1.02h10.71l-3.66,18.6c-.2,1.01.34,1.97,1.31,2.33.24.09.49.13.74.13.72,0,1.39-.38,1.77-1.06l16.84-29.91c.36-.64.36-1.41-.02-2.05Z"/>
            <path class="cls-4" d="M206.22,117.52c-10.48,0-20.81,2.66-29.92,7.71-2.7-6.69-9.29-11.15-16.51-11.15-9.81,0-17.79,8-17.79,17.83l.7,78.89c0,20.98-15.01,22.61-19.61,22.61-9.54,0-19.2-7.77-19.2-22.61v-36.34c0-3.49,2.84-6.34,6.34-6.34h4.3l.04-8.44h-.59s-.06,0-.08,0c-4.1,0-6.7.09-7.74.26-6.12,1.01-10.91,7.39-10.91,14.52v36.34c0,29.75,23.19,31.26,27.84,31.26,7.88,0,15.01-2.95,20.07-8.31,5.35-5.66,8.18-13.61,8.18-22.99l-.7-78.89c0-5.05,4.11-9.15,9.15-9.15s9.15,4.1,9.15,9.15v8.64l6.8-4.75c8.97-6.27,19.51-9.59,30.48-9.59,28.35,0,48.93,22.4,48.93,53.27s-20.58,53.27-48.93,53.27c-3.78,0-7.62-.42-11.41-1.25-.35-7.6-6.52-13.52-14.15-13.52s-14.18,6.36-14.18,14.18,6.36,14.18,14.18,14.18c4.83,0,9.26-2.42,11.9-6.49,4.55,1.03,9.14,1.55,13.67,1.55,32.82,0,57.57-26.62,57.57-61.91s-24.75-61.91-57.57-61.91ZM186.2,232.11c0,3.05-2.48,5.54-5.54,5.54s-5.54-2.48-5.54-5.54,2.48-5.54,5.54-5.54,5.54,2.49,5.54,5.54Z"/>
          </g>
        </g>
      </g>
    </g>
  </g>
</svg>